G04 Layer_Color=13813960*
%FSLAX25Y25*%
%MOIN*%
G70*
G01*
G75*
%ADD15C,0.01000*%
D15*
X263000Y226936D02*
Y223000D01*
X261032D01*
X260376Y223656D01*
Y226280D01*
X261032Y226936D01*
X263000D01*
X259064Y223000D02*
Y226936D01*
X257096D01*
X256440Y226280D01*
Y224968D01*
X257096Y224312D01*
X259064D01*
X257752D02*
X256440Y223000D01*
X255129Y226936D02*
Y224312D01*
X253817Y223000D01*
X252505Y224312D01*
Y226936D01*
X251193Y223000D02*
X249881D01*
X250537D01*
Y226936D01*
X251193Y226280D01*
X247913Y223000D02*
X246601D01*
X247257D01*
Y226936D01*
X247913Y226280D01*
X244633D02*
X243977Y226936D01*
X242665D01*
X242009Y226280D01*
Y225624D01*
X242665Y224968D01*
X242009Y224312D01*
Y223656D01*
X242665Y223000D01*
X243977D01*
X244633Y223656D01*
Y224312D01*
X243977Y224968D01*
X244633Y225624D01*
Y226280D01*
X243977Y224968D02*
X242665D01*
X240698Y226936D02*
X238074D01*
Y226280D01*
X240698Y223656D01*
Y223000D01*
X236762Y226280D02*
X236106Y226936D01*
X234794D01*
X234138Y226280D01*
Y225624D01*
X234794Y224968D01*
X235450D01*
X234794D01*
X234138Y224312D01*
Y223656D01*
X234794Y223000D01*
X236106D01*
X236762Y223656D01*
X232826Y223000D02*
Y226936D01*
X230858D01*
X230202Y226280D01*
Y224968D01*
X230858Y224312D01*
X232826D01*
X228890Y226936D02*
Y223000D01*
X227578Y224312D01*
X226266Y223000D01*
Y226936D01*
X224955Y223000D02*
Y226936D01*
X222987D01*
X222331Y226280D01*
Y224968D01*
X222987Y224312D01*
X224955D01*
X221019Y223000D02*
Y226936D01*
X219051D01*
X218395Y226280D01*
Y224968D01*
X219051Y224312D01*
X221019D01*
X219707D02*
X218395Y223000D01*
M02*
