G04 Layer_Color=15132400*
%FSLAX25Y25*%
%MOIN*%
G70*
G01*
G75*
%ADD15C,0.01000*%
%ADD24C,0.02362*%
%ADD25C,0.00984*%
%ADD26C,0.00787*%
D15*
X207618Y231988D02*
Y243012D01*
X187146D02*
X207618D01*
X187146Y231988D02*
Y243012D01*
Y231988D02*
X207618D01*
X214000Y286498D02*
X217999Y282500D01*
X214000D02*
X217999Y286498D01*
X214000Y284499D02*
X217999D01*
X215999Y282500D02*
Y286498D01*
X234002Y226999D02*
X233002Y225999D01*
Y224000D01*
X234002Y223000D01*
X238000D01*
X239000Y224000D01*
Y225999D01*
X238000Y226999D01*
X239000Y228998D02*
Y230997D01*
Y229998D01*
X233002D01*
X234002Y228998D01*
X226002Y226999D02*
X225002Y225999D01*
Y224000D01*
X226002Y223000D01*
X230000D01*
X231000Y224000D01*
Y225999D01*
X230000Y226999D01*
X231000Y232997D02*
Y228998D01*
X227001Y232997D01*
X226002D01*
X225002Y231997D01*
Y229998D01*
X226002Y228998D01*
X242499Y294498D02*
X241499Y295498D01*
X239500D01*
X238500Y294498D01*
Y290500D01*
X239500Y289500D01*
X241499D01*
X242499Y290500D01*
X244498Y294498D02*
X245498Y295498D01*
X247497D01*
X248497Y294498D01*
Y293499D01*
X247497Y292499D01*
X246497D01*
X247497D01*
X248497Y291499D01*
Y290500D01*
X247497Y289500D01*
X245498D01*
X244498Y290500D01*
X195649Y294348D02*
X193649D01*
X194649D01*
Y289350D01*
X193649Y288350D01*
X192650D01*
X191650Y289350D01*
X197648Y288350D02*
X199647D01*
X198648D01*
Y294348D01*
X197648Y293348D01*
X255099Y296398D02*
X253099D01*
X254099D01*
Y291400D01*
X253099Y290400D01*
X252100D01*
X251100Y291400D01*
X261097Y290400D02*
X257098D01*
X261097Y294399D01*
Y295398D01*
X260097Y296398D01*
X258098D01*
X257098Y295398D01*
X216000Y223000D02*
X210002D01*
Y225999D01*
X211002Y226999D01*
X213001D01*
X214001Y225999D01*
Y223000D01*
Y224999D02*
X216000Y226999D01*
Y228998D02*
Y230997D01*
Y229998D01*
X210002D01*
X211002Y228998D01*
X223500Y223000D02*
X217502D01*
Y225999D01*
X218502Y226999D01*
X220501D01*
X221501Y225999D01*
Y223000D01*
Y224999D02*
X223500Y226999D01*
Y232997D02*
Y228998D01*
X219501Y232997D01*
X218502D01*
X217502Y231997D01*
Y229998D01*
X218502Y228998D01*
X201500Y288000D02*
Y293998D01*
X204499D01*
X205499Y292998D01*
Y290999D01*
X204499Y289999D01*
X201500D01*
X203499D02*
X205499Y288000D01*
X207498Y292998D02*
X208498Y293998D01*
X210497D01*
X211497Y292998D01*
Y291999D01*
X210497Y290999D01*
X209497D01*
X210497D01*
X211497Y289999D01*
Y289000D01*
X210497Y288000D01*
X208498D01*
X207498Y289000D01*
X207999Y254498D02*
X205999D01*
X206999D01*
Y249500D01*
X205999Y248500D01*
X205000D01*
X204000Y249500D01*
X209998Y253498D02*
X210998Y254498D01*
X212997D01*
X213997Y253498D01*
Y252499D01*
X212997Y251499D01*
X211997D01*
X212997D01*
X213997Y250499D01*
Y249500D01*
X212997Y248500D01*
X210998D01*
X209998Y249500D01*
D24*
X223579Y263531D02*
G03*
X223579Y263531I-1181J0D01*
G01*
D25*
X217181Y254083D02*
G03*
X217181Y254083I-492J0D01*
G01*
D26*
X238539Y259594D02*
Y271406D01*
X218461Y259594D02*
Y271406D01*
X238539D01*
X218461Y259594D02*
X238539D01*
X250500Y287000D02*
X260500D01*
Y247000D02*
Y287000D01*
X250500Y247000D02*
X260500D01*
X250500D02*
Y287000D01*
X191000Y285000D02*
X201000D01*
Y245000D02*
Y285000D01*
X191000Y245000D02*
X201000D01*
X191000D02*
Y285000D01*
X204337Y261255D02*
X202500D01*
Y259877D01*
X203418Y260337D01*
X203877D01*
X204337Y259877D01*
Y258959D01*
X203877Y258500D01*
X202959D01*
X202500Y258959D01*
X205255Y261255D02*
Y259418D01*
X206173Y258500D01*
X207092Y259418D01*
Y261255D01*
X204337Y271255D02*
X202500D01*
Y269878D01*
X203418D01*
X202500D01*
Y268500D01*
X205255D02*
X207092Y270337D01*
X208010Y271255D02*
Y268500D01*
X208928Y269418D01*
X209847Y268500D01*
Y271255D01*
X203000Y278500D02*
Y281255D01*
X204378D01*
X204837Y280796D01*
Y279877D01*
X204378Y279418D01*
X203000D01*
X205755Y281255D02*
Y278500D01*
X206673Y279418D01*
X207592Y278500D01*
Y281255D01*
X208510Y278500D02*
Y281255D01*
X209428Y280337D01*
X210347Y281255D01*
Y278500D01*
X199000Y229755D02*
Y227918D01*
X199918Y227000D01*
X200837Y227918D01*
Y229755D01*
X203592Y229296D02*
X203133Y229755D01*
X202214D01*
X201755Y229296D01*
Y227459D01*
X202214Y227000D01*
X203133D01*
X203592Y227459D01*
X206347Y229296D02*
X205888Y229755D01*
X204969D01*
X204510Y229296D01*
Y227459D01*
X204969Y227000D01*
X205888D01*
X206347Y227459D01*
X189837Y229296D02*
X189377Y229755D01*
X188459D01*
X188000Y229296D01*
Y227459D01*
X188459Y227000D01*
X189377D01*
X189837Y227459D01*
Y228378D01*
X188918D01*
X190755Y227000D02*
Y229755D01*
X192592Y227000D01*
Y229755D01*
X193510D02*
Y227000D01*
X194888D01*
X195347Y227459D01*
Y229296D01*
X194888Y229755D01*
X193510D01*
X242837Y252296D02*
X242377Y252755D01*
X241459D01*
X241000Y252296D01*
Y250459D01*
X241459Y250000D01*
X242377D01*
X242837Y250459D01*
X245132Y252755D02*
X244214D01*
X243755Y252296D01*
Y250459D01*
X244214Y250000D01*
X245132D01*
X245592Y250459D01*
Y252296D01*
X245132Y252755D01*
X246510Y250000D02*
Y252755D01*
X247428Y251837D01*
X248347Y252755D01*
Y250000D01*
X247000Y263255D02*
Y260500D01*
X247918Y261418D01*
X248837Y260500D01*
Y263255D01*
X247000Y273255D02*
Y271418D01*
X247918Y270500D01*
X248837Y271418D01*
Y273255D01*
X247000Y283255D02*
Y280959D01*
X247459Y280500D01*
X248377D01*
X248837Y280959D01*
Y283255D01*
M02*
