G04 Layer_Color=8150272*
%FSLAX25Y25*%
%MOIN*%
G70*
G01*
G75*
%ADD32C,0.07800*%
G04:AMPARAMS|DCode=33|XSize=78mil|YSize=78mil|CornerRadius=21.5mil|HoleSize=0mil|Usage=FLASHONLY|Rotation=180.000|XOffset=0mil|YOffset=0mil|HoleType=Round|Shape=RoundedRectangle|*
%AMROUNDEDRECTD33*
21,1,0.07800,0.03500,0,0,180.0*
21,1,0.03500,0.07800,0,0,180.0*
1,1,0.04300,-0.01750,0.01750*
1,1,0.04300,0.01750,0.01750*
1,1,0.04300,0.01750,-0.01750*
1,1,0.04300,-0.01750,-0.01750*
%
%ADD33ROUNDEDRECTD33*%
%ADD34C,0.06706*%
%ADD35R,0.06706X0.06706*%
%ADD36C,0.02800*%
D32*
X192500Y237500D02*
D03*
D33*
X202500D02*
D03*
D34*
X255500Y282000D02*
D03*
Y272000D02*
D03*
Y262000D02*
D03*
X196000Y280000D02*
D03*
Y270000D02*
D03*
Y260000D02*
D03*
D35*
X255500Y252000D02*
D03*
X196000Y250000D02*
D03*
D36*
X223000Y294000D02*
D03*
X232000Y263000D02*
D03*
X229500D02*
D03*
X227000D02*
D03*
X224500D02*
D03*
Y265500D02*
D03*
X227000D02*
D03*
X229500D02*
D03*
X232000D02*
D03*
Y268000D02*
D03*
X229500D02*
D03*
X227000D02*
D03*
X224500D02*
D03*
X227500Y299000D02*
D03*
M02*
