G04 Layer_Color=7318015*
%FSLAX25Y25*%
%MOIN*%
G70*
G01*
G75*
%ADD10O,0.01378X0.07874*%
%ADD11R,0.02756X0.03347*%
%ADD12R,0.04134X0.03937*%
%ADD13R,0.03543X0.03347*%
G04:AMPARAMS|DCode=14|XSize=41.34mil|YSize=35.43mil|CornerRadius=3.54mil|HoleSize=0mil|Usage=FLASHONLY|Rotation=180.000|XOffset=0mil|YOffset=0mil|HoleType=Round|Shape=RoundedRectangle|*
%AMROUNDEDRECTD14*
21,1,0.04134,0.02835,0,0,180.0*
21,1,0.03425,0.03543,0,0,180.0*
1,1,0.00709,-0.01713,0.01417*
1,1,0.00709,0.01713,0.01417*
1,1,0.00709,0.01713,-0.01417*
1,1,0.00709,-0.01713,-0.01417*
%
%ADD14ROUNDEDRECTD14*%
D10*
X237457Y276917D02*
D03*
X234898D02*
D03*
X232339D02*
D03*
X229780D02*
D03*
X227221D02*
D03*
X224661D02*
D03*
X222102D02*
D03*
X219543D02*
D03*
X237457Y254083D02*
D03*
X234898D02*
D03*
X232339D02*
D03*
X229780D02*
D03*
X227221D02*
D03*
X224661D02*
D03*
X222102D02*
D03*
X219543D02*
D03*
D11*
X214539Y290500D02*
D03*
X219461D02*
D03*
D12*
X228047Y290000D02*
D03*
X233953D02*
D03*
D13*
X232000Y238441D02*
D03*
Y243559D02*
D03*
X225000Y238441D02*
D03*
Y243559D02*
D03*
D14*
X219000Y243657D02*
D03*
Y238342D02*
D03*
X213000Y243657D02*
D03*
Y238342D02*
D03*
M02*
